# xmcd CD database file generated by libcdaudio 0.99.4
# 
# Track frame offsets:
#       150
#       11197
#       22872
#       35465
#       47780
#       57847
#       68122
#       78940
#       91320
#       102480
#       114420
#       126512
#       136417
#       147815
#       156067
#       163692
#       173855
#       185847
#       195392
#       204762
# 
# Disc length: 2886 seconds
# 
# Revision: 0
# Processed by: cddbd v1.4b41PL1 Copyright (c) Steve Scherf et al.
# Submitted via: libcdaudio 0.99.4
# 
DISCID=0f0b4414
DTITLE=Johnny Cash - The Masters Johnny Cash
DYEAR=1900
DGENRE=
TTITLE0=Cry! Cry! Cry!
TTITLE1=So Doggone Lonesome
TTITLE2=Folsom Prison Blues
TTITLE3=I Walk the Line
TTITLE4=Get Rythm
TTITLE5=There You Go
TTITLE6=Train of Love
TTITLE7=Next In Line
TTITLE8=Don't Make Me Go
TTITLE9=Home of the Blues
TTITLE10=Give My Love to Rose
TTITLE11=Ballad of a Teenage Queen
TTITLE12=Big River
TTITLE13=Guess Things Happen that Way
TTITLE14=Come in Stranger
TTITLE15=The Ways of a Woman in Love
TTITLE16=You're the Nearest Thing to Heaven
TTITLE17=It's Just About Time
TTITLE18=Luther Played the Boogie
TTITLE19=Thanks A Lot
EXTD=
EXTT0=
EXTT1=
EXTT2=
EXTT3=
EXTT4=
EXTT5=
EXTT6=
EXTT7=
EXTT8=
EXTT9=
EXTT10=
EXTT11=
EXTT12=
EXTT13=
EXTT14=
EXTT15=
EXTT16=
EXTT17=
EXTT18=
EXTT19=
PLAYORDER=
